# xmcd CD database file generated by Grip 3.2.0
# 
# Track frame offsets:
#       150
#       14750
#       34242
#       51327
#       70927
#       84067
#       98715
#       119235
#       129072
#       148510
# 
# Disc length: 2272 seconds
# 
# Revision: 4
# Processed by: cddbd v1.5.1PL2 Copyright (c) Steve Scherf et al.
# Submitted via: Grip 3.2.0
# 
DISCID=8708de0a
DTITLE=Roomful Of Blues - The First Album
DYEAR=1977
DGENRE=Blues
TTITLE0=Red, Hot and Blue
TTITLE1=Love Struck
TTITLE2=That's My Life
TTITLE3=Duke's Blues
TTITLE4=Texas Flood
TTITLE5=Give It Up
TTITLE6=Stormy Monday
TTITLE7=Take It Like A Man
TTITLE8=Still In Love With You
TTITLE9=Honey Hush
EXTD=YEAR: 1988 ID3G: 0
EXTT0=
EXTT1=
EXTT2=
EXTT3=
EXTT4=
EXTT5=
EXTT6=
EXTT7=
EXTT8=
EXTT9=
PLAYORDER=
